<?xml version="1.0" encoding="UTF-8"?>
<svg id="PJATK_logo" data-name="PJATK logo" xmlns="http://www.w3.org/2000/svg" viewBox="0 0 363.36 54.11">
  <defs>
    <style>
      .cls-1 {
        fill: #231f20;
      }

      .cls-2 {
        fill: #fff;
      }

      .cls-3 {
        fill: #ed1c24;
      }
    </style>
  </defs>
  <path class="cls-3" d="M26.88,9.83c-9.5,0-17.26,7.77-17.26,17.26s7.77,17.29,17.26,17.29,17.29-7.77,17.29-17.29-7.77-17.26-17.29-17.26Z"/>
  <path class="cls-2" d="M41.51,27.08c0-8.02-6.58-14.59-14.63-14.59s-14.6,6.57-14.61,14.59h29.24Z"/>
  <g>
    <path class="cls-1" d="M69.17,10.53h-5.85v12.78c0,.29.14.5.31.64.12.08.29.18.56.18s.45-.1.56-.18c.18-.14.31-.35.31-.64v-4.35h4.26c.82,0,1.53-.39,1.98-.85.33-.35.7-.97.7-1.81v-3.05c0-.68-.33-1.46-.82-1.94-.72-.74-1.63-.78-2.02-.78ZM70.25,16.1c0,.27-.02.52-.25.78-.29.31-.66.33-.97.33h-3.96v-4.94h4.12c.23,0,.52.04.78.29.25.25.29.54.29.82v2.72Z"/>
    <path class="cls-1" d="M82.34,12.02c-.54-1.07-1.2-1.5-2.14-1.5s-1.59.43-2.14,1.5l-1.83,3.59c-.29.58-.39,1.18-.39,1.71,0,.78.23,1.44.39,1.73l1.83,3.58c.25.49.51.85.82,1.09.33.25.8.41,1.32.41s1.01-.14,1.4-.47c.33-.29.53-.62.74-1.03l1.83-3.58c.19-.39.39-.95.39-1.71s-.21-1.38-.39-1.73l-1.83-3.59ZM82.57,18.32l-1.88,3.71c-.1.18-.19.35-.49.35s-.39-.21-.47-.35l-1.9-3.71c-.1-.19-.23-.56-.23-1.01,0-.41.12-.76.23-.97l1.89-3.71c.16-.33.37-.35.49-.35.14,0,.31.04.47.35l1.9,3.71c.21.41.23.78.23.99,0,.49-.17.87-.23.99Z"/>
    <path class="cls-1" d="M97.03,22.38h-6.14v-11.04c0-.29-.14-.51-.31-.64-.12-.08-.29-.17-.56-.17s-.45.1-.56.17c-.17.14-.31.35-.31.64v12.79h7.89c.29,0,.51-.14.64-.31.08-.12.17-.29.17-.56s-.1-.45-.17-.56c-.14-.18-.35-.31-.64-.31Z"/>
    <path class="cls-1" d="M103.53,12.27h4.31c.16,0,.29.06.39.14.1.08.19.21.21.33l.06.25c.04.16.14.5.33.66.14.12.33.14.49.14.19,0,.45-.02.66-.21.23-.21.27-.5.27-.74,0-.76-.37-1.26-.68-1.57-.51-.53-1.07-.74-1.69-.74h-4.35c-.6,0-1.07.27-1.38.54-.45.41-.6.95-.6,1.38,0,.68.31,1.11.56,1.44l6.32,8.12c.04.06.06.1.06.16,0,.04-.02.1-.04.14-.06.08-.14.08-.19.08h-4.33c-.39,0-.5-.31-.56-.49l-.04-.14c-.1-.35-.16-.5-.25-.62-.06-.08-.23-.23-.62-.23-.35,0-.52.14-.58.18-.16.12-.31.35-.31.78s.17,1.01.68,1.53c.51.53,1.07.74,1.69.74h4.35c.8,0,1.28-.43,1.48-.64.31-.33.51-.81.51-1.3,0-.7-.35-1.15-.56-1.42l-6.31-8.12s-.06-.08-.06-.16c0-.14.1-.21.21-.21Z"/>
    <path class="cls-1" d="M123.61,11.34c0-.23-.08-.41-.23-.56-.17-.18-.39-.25-.66-.25s-.45.12-.64.27l-5.4,4.6v-4.06c0-.29-.14-.51-.31-.64-.12-.08-.29-.17-.56-.17s-.45.1-.56.17c-.17.14-.31.35-.31.64v11.97c0,.29.14.5.31.64.12.08.29.18.56.18s.45-.1.56-.18c.17-.14.31-.35.31-.64v-4.1l5.4,4.64c.14.12.35.27.64.27.25,0,.51-.12.66-.27.14-.14.23-.33.23-.56,0-.19-.04-.47-.39-.76l-6.08-5.21,6.08-5.21c.33-.27.39-.58.39-.78Z"/>
    <path class="cls-1" d="M133.19,12.02c-.54-1.07-1.2-1.5-2.14-1.5s-1.59.43-2.14,1.5l-1.83,3.59c-.29.58-.39,1.18-.39,1.71,0,.78.23,1.44.39,1.73l1.83,3.58c.25.49.51.85.82,1.09.33.25.8.41,1.32.41s1.01-.14,1.4-.47c.33-.29.52-.62.74-1.03l1.83-3.58c.19-.39.39-.95.39-1.71s-.21-1.38-.39-1.73l-1.83-3.59ZM133.42,18.32l-1.88,3.71c-.1.18-.19.35-.49.35s-.39-.21-.47-.35l-1.9-3.71c-.1-.19-.23-.56-.23-1.01,0-.41.12-.76.23-.97l1.89-3.71c.16-.33.37-.35.49-.35.14,0,.31.04.47.35l1.9,3.71c.21.41.23.78.23.99,0,.49-.17.87-.23.99Z"/>
    <path class="cls-1" d="M147.82,16.29h-6.72c-.56,0-.99.28-.99.74v.63c0,.51.5.76.99.76h6.72c.56,0,.99-.33.99-.76v-.63c0-.46-.43-.74-.99-.74Z"/>
    <path class="cls-1" d="M159.14,10.53c-.27,0-.45.1-.56.17-.17.14-.31.35-.31.64v9.95c0,.21-.02.52-.25.78-.25.29-.58.31-.84.31h-1.28c-.25,0-.58-.02-.84-.31-.23-.25-.25-.56-.25-.78v-2.55c0-.29-.14-.5-.31-.64-.12-.08-.29-.18-.56-.18s-.45.1-.56.18c-.17.14-.31.35-.31.64v2.51c0,.56.08,1.3.62,1.94.43.51,1.15.93,2.04.93h1.63c.91,0,1.55-.43,1.94-.84.62-.66.72-1.38.72-1.98v-9.97c0-.29-.14-.51-.31-.64-.12-.08-.29-.17-.56-.17Z"/>
    <path class="cls-1" d="M169.86,11.52c-.14-.47-.31-.99-.95-.99s-.84.54-.97.99l-3.3,11.39c-.02.06-.04.27-.04.33v.02c0,.23.06.43.19.58.16.17.39.29.7.29.23,0,.41-.08.5-.18.14-.12.27-.37.33-.56l.68-2.21h3.83l.66,2.21c.06.19.14.37.29.53.14.14.35.21.58.21.31,0,.51-.14.62-.25.16-.16.33-.45.17-.97l-3.3-11.39ZM167.49,19.42l1.42-4.86,1.4,4.86h-2.82Z"/>
    <path class="cls-1" d="M183.39,10.53h-5.85v12.78c0,.29.14.5.31.64.12.08.29.18.56.18s.45-.1.56-.18c.17-.14.31-.35.31-.64v-4.35h4.26c.82,0,1.53-.39,1.98-.85.33-.35.7-.97.7-1.81v-3.05c0-.68-.33-1.46-.82-1.94-.72-.74-1.63-.78-2.02-.78ZM184.48,16.1c0,.27-.02.52-.25.78-.29.31-.66.33-.97.33h-3.96v-4.94h4.12c.23,0,.52.04.78.29.25.25.29.54.29.82v2.72Z"/>
    <path class="cls-1" d="M196.56,12.02c-.54-1.07-1.2-1.5-2.14-1.5s-1.59.43-2.14,1.5l-1.83,3.59c-.29.58-.39,1.18-.39,1.71,0,.78.23,1.44.39,1.73l1.83,3.58c.25.49.51.85.82,1.09.33.25.8.41,1.32.41s1.01-.14,1.4-.47c.33-.29.52-.62.74-1.03l1.83-3.58c.19-.39.39-.95.39-1.71s-.21-1.38-.39-1.73l-1.83-3.59ZM196.8,18.32l-1.89,3.71c-.1.18-.19.35-.49.35s-.39-.21-.47-.35l-1.9-3.71c-.1-.19-.23-.56-.23-1.01,0-.41.12-.76.23-.97l1.88-3.71c.16-.33.37-.35.49-.35.14,0,.31.04.47.35l1.9,3.71c.21.41.23.78.23.99,0,.49-.17.87-.23.99Z"/>
    <path class="cls-1" d="M206.75,9.79c.21,0,.58-.12.91-.25l1.9-.72c.45-.17.76-.43.76-.87,0-.41-.31-.87-.74-.87-.29,0-.81.25-.87.27l-2.02.78c-.37.16-.68.39-.68.8,0,.52.39.87.74.87Z"/>
    <path class="cls-1" d="M211.06,10.53c-.27,0-.45.1-.56.17-.18.14-.31.35-.31.64v9.7l-4.62-10.51h-2.33v12.78c0,.29.14.5.31.64.12.08.29.18.56.18s.45-.1.56-.18c.18-.14.31-.35.31-.64v-9.66l4.62,10.47h2.33v-12.79c0-.29-.14-.51-.31-.64-.12-.08-.29-.17-.56-.17Z"/>
    <path class="cls-1" d="M218.46,12.27h4.31c.16,0,.29.06.39.14.1.08.19.21.21.33l.06.25c.04.16.14.5.33.66.14.12.33.14.49.14.19,0,.45-.02.66-.21.23-.21.27-.5.27-.74,0-.76-.37-1.26-.68-1.57-.51-.53-1.07-.74-1.69-.74h-4.35c-.6,0-1.07.27-1.38.54-.45.41-.6.95-.6,1.38,0,.68.31,1.11.56,1.44l6.31,8.12c.04.06.06.1.06.16,0,.04-.02.1-.04.14-.06.08-.14.08-.19.08h-4.33c-.39,0-.51-.31-.56-.49l-.04-.14c-.1-.35-.16-.5-.25-.62-.06-.08-.23-.23-.62-.23-.35,0-.52.14-.58.18-.16.12-.31.35-.31.78s.18,1.01.68,1.53c.51.53,1.07.74,1.69.74h4.35c.8,0,1.28-.43,1.48-.64.31-.33.5-.81.5-1.3,0-.7-.35-1.15-.56-1.42l-6.31-8.12s-.06-.08-.06-.16c0-.14.1-.21.21-.21Z"/>
    <path class="cls-1" d="M238.54,11.34c0-.23-.08-.41-.23-.56-.18-.18-.39-.25-.66-.25s-.45.12-.64.27l-5.4,4.6v-4.06c0-.29-.14-.51-.31-.64-.12-.08-.29-.17-.56-.17s-.45.1-.56.17c-.18.14-.31.35-.31.64v11.97c0,.29.14.5.31.64.12.08.29.18.56.18s.45-.1.56-.18c.18-.14.31-.35.31-.64v-4.1l5.4,4.64c.14.12.35.27.64.27.25,0,.5-.12.66-.27.14-.14.23-.33.23-.56,0-.19-.04-.47-.39-.76l-6.08-5.21,6.08-5.21c.33-.27.39-.58.39-.78Z"/>
    <path class="cls-1" d="M247.63,11.52c-.14-.47-.31-.99-.95-.99s-.84.54-.97.99l-3.3,11.39c-.02.06-.04.27-.04.33v.02c0,.23.06.43.19.58.16.17.39.29.7.29.23,0,.41-.08.5-.18.14-.12.27-.37.33-.56l.68-2.21h3.83l.66,2.21c.06.19.14.37.29.53.14.14.35.21.58.21.31,0,.51-.14.62-.25.16-.16.33-.45.18-.97l-3.3-11.39ZM245.26,19.42l1.42-4.86,1.4,4.86h-2.82Z"/>
    <path class="cls-1" d="M270.96,11.52c-.14-.47-.31-.99-.95-.99s-.84.54-.97.99l-3.3,11.39c-.02.06-.04.27-.04.33v.02c0,.23.06.43.19.58.16.17.39.29.7.29.23,0,.41-.08.5-.18.14-.12.27-.37.33-.56l.68-2.21h3.83l.66,2.21c.06.19.14.37.29.53.14.14.35.21.58.21.31,0,.51-.14.62-.25.16-.16.33-.45.18-.97l-3.3-11.39ZM268.59,19.42l1.42-4.86,1.4,4.86h-2.82Z"/>
    <path class="cls-1" d="M287.38,11.34c0-.23-.08-.41-.23-.56-.18-.18-.39-.25-.66-.25s-.45.12-.64.27l-5.4,4.6v-4.06c0-.29-.14-.51-.31-.64-.12-.08-.29-.17-.56-.17s-.45.1-.56.17c-.18.14-.31.35-.31.64v11.97c0,.29.14.5.31.64.12.08.29.18.56.18s.45-.1.56-.18c.18-.14.31-.35.31-.64v-4.1l5.4,4.64c.14.12.35.27.64.27.25,0,.5-.12.66-.27.14-.14.23-.33.23-.56,0-.19-.04-.47-.39-.76l-6.08-5.21,6.08-5.21c.33-.27.39-.58.39-.78Z"/>
    <path class="cls-1" d="M296.47,11.52c-.14-.47-.31-.99-.95-.99s-.84.54-.97.99l-3.3,11.39c-.02.06-.04.27-.04.33v.02c0,.23.06.43.19.58.16.17.39.29.7.29.23,0,.41-.08.5-.18.14-.12.27-.37.33-.56l.68-2.21h3.83l.66,2.21c.06.19.14.37.29.53.14.14.35.21.58.21.31,0,.51-.14.62-.25.16-.16.33-.45.18-.97l-3.3-11.39ZM294.1,19.42l1.42-4.86,1.4,4.86h-2.82Z"/>
    <path class="cls-1" d="M310.22,12.18c-.27-.53-.5-.87-.97-1.21-.39-.27-.78-.45-1.48-.45h-3.28c-.29,0-.5.14-.64.31-.08.12-.18.29-.18.56s.1.45.18.56c.14.17.35.31.64.31h.93v10.1h-.93c-.29,0-.5.14-.64.31-.08.12-.18.29-.18.56s.1.45.18.56c.14.18.35.31.64.31h3.28c.41,0,.97-.06,1.46-.41.39-.27.8-.86.99-1.24l1.83-3.63c.29-.56.37-.93.37-1.52,0-.76-.14-1.07-.37-1.52l-1.83-3.63ZM310.42,18.16l-1.81,3.65c-.21.45-.56.56-.84.56h-.6v-10.1h.6c.5,0,.74.41.84.58l1.81,3.63c.12.25.21.43.21.82,0,.25-.02.47-.21.85Z"/>
    <path class="cls-1" d="M324.76,12.27c.29,0,.5-.14.64-.31.08-.12.18-.29.18-.56s-.1-.45-.18-.56c-.14-.17-.35-.31-.64-.31h-7.56v13.6h7.56c.29,0,.5-.14.64-.31.08-.12.18-.29.18-.56s-.1-.45-.18-.56c-.14-.18-.35-.31-.64-.31h-5.81v-4.18h2.64c.29,0,.5-.14.64-.31.08-.12.18-.29.18-.56s-.1-.45-.18-.56c-.14-.17-.35-.31-.64-.31h-2.64v-4.18h5.81Z"/>
    <path class="cls-1" d="M333.74,13.59l-2.16-3.07h-2.18v12.78c0,.29.14.5.31.64.12.08.29.18.56.18s.45-.1.56-.18c.17-.14.31-.35.31-.64v-10.26l1.71,2.33v.54c0,.29.14.5.31.64.12.08.29.18.56.18s.45-.1.56-.18c.17-.14.31-.35.31-.64v-.54l1.71-2.33v10.26c0,.29.14.5.31.64.12.08.29.18.56.18s.45-.1.56-.18c.17-.14.31-.35.31-.64v-12.78h-2.18l-2.16,3.07Z"/>
    <path class="cls-1" d="M349.96,12.27c.29,0,.5-.14.64-.31.08-.12.17-.29.17-.56s-.1-.45-.17-.56c-.14-.17-.35-.31-.64-.31h-7.07c-.29,0-.5.14-.64.31-.08.12-.18.29-.18.56s.1.45.18.56c.14.17.35.31.64.31h2.66v10.1h-2.66c-.29,0-.5.14-.64.31-.08.12-.18.29-.18.56s.1.45.18.56c.14.18.35.31.64.31h7.07c.29,0,.5-.14.64-.31.08-.12.17-.29.17-.56s-.1-.45-.17-.56c-.14-.18-.35-.31-.64-.31h-2.66v-10.1h2.66Z"/>
    <path class="cls-1" d="M363.3,22.9l-3.3-11.39c-.14-.47-.31-.99-.95-.99s-.84.54-.97.99l-3.3,11.39c-.02.06-.04.27-.04.33v.02c0,.23.06.43.19.58.16.17.39.29.7.29.23,0,.41-.08.5-.18.14-.12.27-.37.33-.56l.68-2.21h3.83l.66,2.21c.06.19.14.37.29.53.14.14.35.21.58.21.31,0,.51-.14.62-.25.16-.16.33-.45.18-.97ZM357.62,19.42l1.42-4.86,1.4,4.86h-2.82Z"/>
    <path class="cls-1" d="M63.14,34.24c0,.29.14.5.31.64.12.08.29.18.56.18s.45-.1.56-.18c.17-.14.31-.35.31-.64v-.7h1.73v11.04c0,.29.14.51.31.64.12.08.29.17.56.17s.45-.1.56-.17c.17-.14.31-.35.31-.64v-11.04h1.73v.7c0,.29.14.5.31.64.12.08.29.18.56.18s.45-.1.56-.18c.17-.14.31-.35.31-.64v-2.45h-8.7v2.45Z"/>
    <path class="cls-1" d="M83.62,33.54c.29,0,.51-.14.64-.31.08-.12.17-.29.17-.56s-.1-.45-.17-.56c-.14-.18-.35-.31-.64-.31h-7.56v13.6h7.56c.29,0,.51-.14.64-.31.08-.12.17-.29.17-.56s-.1-.45-.17-.56c-.14-.17-.35-.31-.64-.31h-5.81v-4.18h2.64c.29,0,.51-.13.64-.31.08-.12.17-.29.17-.56s-.1-.45-.17-.56c-.14-.18-.35-.31-.64-.31h-2.64v-4.18h5.81Z"/>
    <path class="cls-1" d="M91.13,34.08c.16-.29.49-.54.84-.54h3.28c.29,0,.51-.14.64-.31.08-.12.17-.29.17-.56s-.1-.45-.17-.56c-.14-.18-.35-.31-.64-.31h-3.28c-.72,0-1.24.25-1.59.53-.43.33-.66.76-.86,1.13l-1.83,3.63c-.1.19-.33.76-.33,1.53,0,.37.06.95.33,1.5l1.83,3.63c.35.68.72,1.05.95,1.21.37.25.97.45,1.5.45h3.28c.29,0,.51-.14.64-.31.08-.12.17-.29.17-.56s-.1-.45-.17-.56c-.14-.17-.35-.31-.64-.31h-3.28c-.37,0-.68-.25-.84-.56l-1.85-3.65c-.08-.16-.17-.45-.17-.8s.1-.7.17-.87l1.85-3.67Z"/>
    <path class="cls-1" d="M107.71,31.79c-.27,0-.45.1-.56.18-.17.14-.31.35-.31.64v5.11h-5.17v-5.11c0-.29-.14-.5-.31-.64-.12-.08-.29-.18-.56-.18s-.45.1-.56.18c-.17.14-.31.35-.31.64v11.97c0,.29.14.51.31.64.12.08.29.17.56.17s.45-.1.56-.17c.17-.14.31-.35.31-.64v-5.11h5.17v5.11c0,.29.14.51.31.64.12.08.29.17.56.17s.45-.1.56-.17c.17-.14.31-.35.31-.64v-11.97c0-.29-.14-.5-.31-.64-.12-.08-.29-.18-.56-.18Z"/>
    <path class="cls-1" d="M121.36,31.79c-.27,0-.45.1-.56.18-.17.14-.31.35-.31.64v9.7l-4.62-10.51h-2.33v12.79c0,.29.14.51.31.64.12.08.29.17.56.17s.45-.1.56-.17c.18-.14.31-.35.31-.64v-9.66l4.62,10.47h2.33v-12.79c0-.29-.14-.5-.31-.64-.12-.08-.29-.18-.56-.18Z"/>
    <path class="cls-1" d="M134.11,33.54c.29,0,.51-.14.64-.31.08-.12.17-.29.17-.56s-.1-.45-.17-.56c-.14-.18-.35-.31-.64-.31h-7.07c-.29,0-.5.14-.64.31-.08.12-.17.29-.17.56s.1.45.17.56c.14.18.35.31.64.31h2.66v10.1h-2.66c-.29,0-.5.14-.64.31-.08.12-.17.29-.17.56s.1.45.17.56c.14.17.35.31.64.31h7.07c.29,0,.51-.14.64-.31.08-.12.17-.29.17-.56s-.1-.45-.17-.56c-.14-.17-.35-.31-.64-.31h-2.66v-10.1h2.66Z"/>
    <path class="cls-1" d="M147.74,32.6c0-.23-.08-.41-.23-.56-.17-.17-.39-.25-.66-.25s-.45.12-.64.27l-5.4,4.61v-4.06c0-.29-.14-.5-.31-.64-.12-.08-.29-.18-.56-.18s-.45.1-.56.18c-.17.14-.31.35-.31.64v11.97c0,.29.14.51.31.64.12.08.29.17.56.17s.45-.1.56-.17c.17-.14.31-.35.31-.64v-4.1l5.4,4.64c.14.12.35.27.64.27.25,0,.51-.12.66-.27.14-.14.23-.33.23-.56,0-.19-.04-.47-.39-.76l-6.08-5.21,6.08-5.21c.33-.27.39-.58.39-.78Z"/>
    <path class="cls-1" d="M171.07,32.6c0-.23-.08-.41-.23-.56-.17-.17-.39-.25-.66-.25s-.45.12-.64.27l-5.4,4.61v-4.06c0-.29-.14-.5-.31-.64-.12-.08-.29-.18-.56-.18s-.45.1-.56.18c-.17.14-.31.35-.31.64v11.97c0,.29.14.51.31.64.12.08.29.17.56.17s.45-.1.56-.17c.17-.14.31-.35.31-.64v-4.1l5.4,4.64c.14.12.35.27.64.27.25,0,.51-.12.66-.27.14-.14.23-.33.23-.56,0-.19-.04-.47-.39-.76l-6.08-5.21,6.08-5.21c.33-.27.39-.58.39-.78Z"/>
    <path class="cls-1" d="M180.65,33.29c-.54-1.07-1.2-1.5-2.14-1.5s-1.59.43-2.14,1.5l-1.83,3.59c-.29.58-.39,1.18-.39,1.71,0,.78.23,1.44.39,1.73l1.83,3.58c.25.49.51.85.82,1.09.33.25.8.41,1.32.41s1.01-.14,1.4-.47c.33-.29.52-.62.74-1.03l1.83-3.58c.19-.39.39-.95.39-1.71s-.21-1.38-.39-1.73l-1.83-3.59ZM180.88,39.58l-1.89,3.71c-.1.17-.19.35-.49.35s-.39-.21-.47-.35l-1.9-3.71c-.1-.19-.23-.56-.23-1.01,0-.41.12-.76.23-.97l1.88-3.71c.16-.33.37-.35.49-.35.14,0,.31.04.47.35l1.9,3.71c.21.41.23.78.23.99,0,.49-.17.87-.23.99Z"/>
    <path class="cls-1" d="M191.66,34.86l-2.16-3.07h-2.18v12.79c0,.29.14.51.31.64.12.08.29.17.56.17s.45-.1.56-.17c.17-.14.31-.35.31-.64v-10.26l1.71,2.33v.54c0,.29.14.5.31.64.12.08.29.17.56.17s.45-.1.56-.17c.17-.14.31-.35.31-.64v-.54l1.71-2.33v10.26c0,.29.14.51.31.64.12.08.29.17.56.17s.45-.1.56-.17c.17-.14.31-.35.31-.64v-12.79h-2.18l-2.16,3.07Z"/>
    <path class="cls-1" d="M206.87,31.79h-5.85v12.79c0,.29.14.51.31.64.12.08.29.17.56.17s.45-.1.56-.17c.17-.14.31-.35.31-.64v-4.35h4.26c.82,0,1.53-.39,1.98-.85.33-.35.7-.97.7-1.81v-3.05c0-.68-.33-1.46-.82-1.94-.72-.74-1.63-.78-2.02-.78ZM207.95,37.37c0,.27-.02.53-.25.78-.29.31-.66.33-.97.33h-3.96v-4.93h4.12c.23,0,.52.04.78.29.25.25.29.54.29.82v2.72Z"/>
    <path class="cls-1" d="M221.88,31.79c-.27,0-.45.1-.56.18-.17.14-.31.35-.31.64v9.95c0,.21-.02.53-.25.78-.25.29-.58.31-.84.31h-2.99c-.25,0-.58-.02-.84-.31-.23-.25-.25-.56-.25-.78v-9.95c0-.29-.14-.5-.31-.64-.12-.08-.29-.18-.56-.18s-.45.1-.56.18c-.17.14-.31.35-.31.64v9.85c0,.6.08,1.26.56,1.9.39.51,1.07,1.03,2.12,1.03h3.3c1.05,0,1.73-.52,2.12-1.03.49-.64.56-1.3.56-1.9v-9.85c0-.29-.14-.5-.31-.64-.12-.08-.29-.18-.56-.18Z"/>
    <path class="cls-1" d="M226.7,34.24c0,.29.14.5.31.64.12.08.29.18.56.18s.45-.1.56-.18c.18-.14.31-.35.31-.64v-.7h1.73v11.04c0,.29.14.51.31.64.12.08.29.17.56.17s.45-.1.56-.17c.17-.14.31-.35.31-.64v-11.04h1.73v.7c0,.29.14.5.31.64.12.08.29.18.56.18s.45-.1.56-.18c.17-.14.31-.35.31-.64v-2.45h-8.7v2.45Z"/>
    <path class="cls-1" d="M247.18,33.54c.29,0,.5-.14.64-.31.08-.12.18-.29.18-.56s-.1-.45-.18-.56c-.14-.18-.35-.31-.64-.31h-7.56v13.6h7.56c.29,0,.5-.14.64-.31.08-.12.18-.29.18-.56s-.1-.45-.18-.56c-.14-.17-.35-.31-.64-.31h-5.81v-4.18h2.64c.29,0,.5-.13.64-.31.08-.12.18-.29.18-.56s-.1-.45-.18-.56c-.14-.18-.35-.31-.64-.31h-2.64v-4.18h5.81Z"/>
    <path class="cls-1" d="M256.96,37.97h.93c.41,0,1.3-.04,1.98-.78.45-.49.72-1.21.72-1.85v-.91c0-.64-.29-1.32-.72-1.81-.64-.7-1.4-.84-1.96-.84h-5.98v12.79c0,.29.13.51.31.64.12.08.29.17.56.17s.45-.1.56-.17c.18-.14.31-.35.31-.64v-6.57h1.28l3.96,6.86c.17.31.37.52.82.52.27,0,.5-.06.68-.25.14-.16.22-.39.22-.58s-.1-.43-.18-.56l-3.5-6.02ZM253.67,36.26v-2.72h4.16c.18,0,.47.02.7.25.16.16.31.45.31.74v.62c0,.41-.14.68-.29.84-.23.23-.56.27-.81.27h-4.06Z"/>
    <path class="cls-1" d="M270.94,33.29c-.54-1.07-1.2-1.5-2.14-1.5s-1.59.43-2.14,1.5l-1.83,3.59c-.29.58-.39,1.18-.39,1.71,0,.78.23,1.44.39,1.73l1.83,3.58c.25.49.51.85.82,1.09.33.25.8.41,1.32.41s1.01-.14,1.4-.47c.33-.29.52-.62.74-1.03l1.83-3.58c.19-.39.39-.95.39-1.71s-.21-1.38-.39-1.73l-1.83-3.59ZM271.18,39.58l-1.89,3.71c-.1.17-.19.35-.49.35s-.39-.21-.47-.35l-1.9-3.71c-.1-.19-.23-.56-.23-1.01,0-.41.12-.76.23-.97l1.88-3.71c.16-.33.37-.35.49-.35.14,0,.31.04.47.35l1.9,3.71c.21.41.23.78.23.99,0,.49-.17.87-.23.99Z"/>
    <path class="cls-1" d="M285.4,31.79c-.27,0-.45.1-.56.18-.18.14-.31.35-.31.64v10.2l-.53.84h-.74l-.47-.84v-5.75c0-.29-.14-.51-.31-.64-.12-.08-.29-.17-.56-.17s-.45.1-.56.17c-.17.14-.31.35-.31.64v5.75l-.47.84h-.74l-.52-.84v-10.2c0-.29-.14-.5-.31-.64-.12-.08-.29-.18-.56-.18s-.45.1-.56.18c-.18.14-.31.35-.31.64v10.36c0,.08,0,.29.14.53l.66,1.15c.39.68.74.76.97.76h1.71c.49,0,.85-.41.85-.95h.06c0,.53.35.95.84.95h1.71c.17,0,.6-.06.99-.76l.64-1.15c.14-.23.14-.43.14-.53v-10.36c0-.29-.14-.5-.31-.64-.12-.08-.29-.18-.56-.18Z"/>
    <path class="cls-1" d="M298.16,31.79c-.27,0-.45.1-.56.18-.18.14-.31.35-.31.64v1.26l-2.6,3.24-2.6-3.24v-1.26c0-.29-.14-.5-.31-.64-.12-.08-.29-.18-.56-.18s-.45.1-.56.18c-.18.14-.31.35-.31.64v1.87l3.48,4.37v5.73c0,.29.14.51.31.64.12.08.29.17.56.17s.45-.1.56-.17c.17-.14.31-.35.31-.64v-5.73l3.48-4.37v-1.87c0-.29-.14-.5-.31-.64-.12-.08-.29-.18-.56-.18Z"/>
    <path class="cls-1" d="M306.1,34.08c.16-.29.49-.54.84-.54h3.28c.29,0,.5-.14.64-.31.08-.12.18-.29.18-.56s-.1-.45-.18-.56c-.14-.18-.35-.31-.64-.31h-3.28c-.72,0-1.24.25-1.59.53-.43.33-.66.76-.86,1.13l-1.83,3.63c-.1.19-.33.76-.33,1.53,0,.37.06.95.33,1.5l1.83,3.63c.35.68.72,1.05.95,1.21.37.25.97.45,1.5.45h3.28c.29,0,.5-.14.64-.31.08-.12.18-.29.18-.56s-.1-.45-.18-.56c-.14-.17-.35-.31-.64-.31h-3.28c-.37,0-.68-.25-.84-.56l-1.85-3.65c-.08-.16-.18-.45-.18-.8s.1-.7.18-.87l1.85-3.67Z"/>
    <path class="cls-1" d="M322.68,31.79c-.27,0-.45.1-.56.18-.17.14-.31.35-.31.64v5.11h-5.17v-5.11c0-.29-.14-.5-.31-.64-.12-.08-.29-.18-.56-.18s-.45.1-.56.18c-.17.14-.31.35-.31.64v11.97c0,.29.14.51.31.64.12.08.29.17.56.17s.45-.1.56-.17c.17-.14.31-.35.31-.64v-5.11h5.17v5.11c0,.29.14.51.31.64.12.08.29.17.56.17s.45-.1.56-.17c.17-.14.31-.35.31-.64v-11.97c0-.29-.14-.5-.31-.64-.12-.08-.29-.18-.56-.18Z"/>
    <path class="cls-1" d="M49.4,17.45h-.02s-.12.07-.12.16c0,.06.04.11.12.15h.02c.06.02.17.06.24.12.03.03.08.08.08.33v5.14c0,.25.12.31.22.31.06,0,.15-.02.25-.15.04-.05.14-.17.14-.41,0-.08,0-.23-.06-.75v-3.99s0-.07.08-.15c.03-.02.09-.07.1-.15.01-.09-.04-.18-.16-.3-.12-.11-.38-.35-.88-.31h-.02Z"/>
    <path class="cls-1" d="M12.79,11.41c.11.01.21-.02.29-.09.08-.07.13-.16.15-.26.01-.11-.02-.2-.08-.29l-1.23-1.54,1.55-1.24c.25-.2.4-.46.43-.79.04-.32-.05-.61-.25-.86l-.92-1.15c-.2-.25-.47-.4-.79-.44-.33-.04-.61.04-.86.24l-2.17,1.73,3.62,4.54c.07.08.16.13.26.14ZM10.02,6.86l1.55-1.24c.08-.07.18-.09.29-.08.11.01.2.06.26.14l.92,1.15c.07.08.1.18.08.29-.01.11-.06.2-.14.26l-1.55,1.24-1.4-1.76Z"/>
    <path class="cls-1" d="M20.63,6.76c.14-.3.16-.6.04-.91l-1.62-4.31c-.04-.1-.11-.17-.21-.22-.11-.05-.21-.06-.31-.02-.1.04-.17.1-.21.2-.04.1-.04.2,0,.3l1.63,4.32c.04.1.03.2-.01.3-.05.1-.12.17-.22.21l-.74.28c-.1.04-.21.04-.31,0-.1-.04-.17-.11-.2-.21l-.44-1.17c-.04-.1-.11-.17-.21-.22-.1-.04-.2-.05-.3,0-.1.04-.18.11-.22.2-.04.1-.05.2,0,.3l.44,1.16c.11.3.32.52.62.66.3.14.6.15.91.03l.74-.28c.29-.11.51-.31.65-.61Z"/>
    <path class="cls-1" d="M28.11,5.91c.06.19.19.28.39.28.1,0,.18-.04.26-.12.07-.08.11-.17.11-.28,0-.04,0-.08-.02-.12L27.26.25C27.21.08,27.09,0,26.89,0c-.2,0-.33.1-.39.29l-1.55,5.37s-.02.1-.02.14c0,.11.04.21.11.28.08.08.17.12.29.12.08,0,.16-.02.22-.07.07-.05.11-.09.12-.14l.34-1.14h1.79s.31,1.05.31,1.05ZM26.23,4.06l.66-2.25.66,2.24h-1.33Z"/>
    <path class="cls-1" d="M37.6,2.1l-3.74-1.28-.34,1c-.04.1-.03.2.02.3.05.1.12.16.23.2.1.04.2.03.3-.02.1-.05.16-.12.2-.23l.09-.26.75.26-1.62,4.75c-.04.1-.03.2.02.3.05.1.13.16.23.2.1.03.2.03.3-.02.1-.05.17-.12.2-.22l1.62-4.75.75.26-.09.27c-.03.1-.03.2.02.3.05.1.13.17.23.2.1.03.2.03.3-.02.1-.05.16-.12.2-.23l.34-1.01Z"/>
    <path class="cls-1" d="M40.58,7.3l3.72-.23c.11,0,.2-.05.26-.14.06-.08.09-.18.08-.29-.01-.11-.06-.2-.15-.26-.09-.07-.18-.1-.3-.09l-3.29.21,1.11-1.48c.06-.09.09-.18.07-.29-.02-.11-.07-.19-.15-.26-.09-.07-.18-.09-.29-.07-.11.02-.19.07-.26.16l-3.24,4.33c-.07.09-.09.18-.07.29.02.11.07.19.15.26.09.07.18.09.29.08.11-.02.19-.07.26-.15l1.12-1.5.71,3.22c.02.11.08.19.16.26.09.07.19.09.3.07.11-.02.2-.07.26-.16.06-.08.08-.17.06-.27l-.81-3.67Z"/>
    <path class="cls-1" d="M49.25,11.73c.11,0,.36,0,.59-.23.08-.08.23-.23.23-.59,0-.11,0-.36-.23-.59-.08-.08-.23-.23-.59-.23-.11,0-.36,0-.59.23-.08.08-.23.23-.23.59,0,.11,0,.36.23.59.08.08.23.23.59.23ZM48.95,10.58s.11-.11.3-.11c.07,0,.19,0,.3.11.05.05.14.14.14.33,0,.07,0,.19-.14.33-.04.04-.11.11-.3.11-.07,0-.19,0-.3-.11-.05-.05-.14-.14-.14-.33,0-.07,0-.19.14-.33Z"/>
    <path class="cls-1" d="M44.13,12.57c.08.07.23.2.38.2.05,0,.17,0,.26-.07.05-.02.17-.06.62-.13.2-.02.58-.05,1.12-.1v2.89s0,.05-.01.07c-.01,0-.04,0-.08-.04-.14-.09-.43-.29-.92-.6h-.02s-.02-.02-.02-.02c-.06,0-.17-.03-.22.06-.03.06-.02.12.03.2l.02.02c.1.08.31.26.82.74.04.04.11.11.11.24,0,.23.1.28.19.28.06,0,.14-.01.35-.16.12-.09.36-.26.33-.89,0-.18-.03-.56-.03-2.79.62-.02,1.75-.05,2.37.03.06.02.16.05.24,0,.04-.03.06-.07.06-.13,0-.08-.02-.18-.18-.31-.07-.06-.22-.19-.53-.28l-.06-.02-.04.04s-.14.14-.65.17c-.22,0-.66.03-1.21.08v-.63c0-.06,0-.11,0-.13.16-.04.19-.14.19-.22,0-.16-.12-.28-.71-.45-.04-.01-.13-.03-.4-.03h-.05s-.12.07-.12.16c0,.06.04.11.12.15h.01c.19.08.39.17.39.45v.7c-.5.03-1.4.08-1.9.08-.19,0-.4-.02-.51-.23v-.02s-.02-.01-.02-.01c-.04-.04-.11-.11-.2-.08-.05.02-.08.07-.09.15-.05.12-.03.29.35.62Z"/>
    <path class="cls-1" d="M45.51,13.18v-.02c-.01-.05-.03-.15-.13-.18-.11-.02-.18.09-.21.13v.02c-.07.14-.18.42-.43.85-.11.18-.33.56-.72.86h0c-.07.07-.2.21-.2.37h0c0,.1.04.39.31.39.08,0,.18-.02.31-.18.09-.09.27-.27.62-.91.1-.18.29-.56.47-1.32v-.02Z"/>
    <path class="cls-1" d="M48.89,14.9c.09.3.18.56.36.56.14,0,.33-.05.36-.47h0c0-.09,0-.24-.22-.58-.06-.1-.18-.3-.56-.65-.14-.13-.44-.41-.95-.65h-.03s-.03,0-.03,0c-.05.01-.16.03-.17.12,0,.04,0,.1.07.15.18.16.56.48.81.83.1.16.31.5.36.69Z"/>
    <path class="cls-1" d="M52.97,26.69l-.08-.06-.06.08s-.09.12-.23.16c-.89.08-2.71.26-3.42.26-.12,0-.31,0-.42-.2h0s-.01-.02-.01-.02c-.04-.04-.11-.11-.2-.08-.06.02-.09.08-.09.18s0,.28.29.54c.15.14.33.29.47.29.05,0,.15,0,.29-.14.13-.07,1.16-.19,3.07-.36-.39.89-1.18,2.52-3.39,3.69h-.02s-.01.03-.01.03c-.02.03-.08.11-.04.19.05.09.16.09.21.09h.04c.83-.36,2.56-1.1,3.87-3.81.1,0,.22,0,.29-.07.04-.04.07-.09.07-.16,0-.07-.02-.15-.18-.28-.05-.04-.15-.12-.44-.32Z"/>
    <path class="cls-1" d="M49.28,25.4v-.03s-.03-.02-.03-.02c-.04-.04-.11-.11-.2-.08-.06.02-.09.08-.09.18,0,.1,0,.31.32.6.09.08.26.23.44.23.06,0,.13-.01.3-.15.69-.1,2.06-.31,2.84-.17.13.02.24.02.3-.03.03-.03.05-.06.05-.1,0-.06-.02-.15-.15-.25-.07-.06-.22-.19-.61-.31h-.04s-.04,0-.04,0c-.07.03-.2.08-.34.2-.5.04-1.5.11-2.2.11-.17,0-.52,0-.56-.18Z"/>
    <path class="cls-1" d="M47.37,33.35c-.08-.01-.19-.03-.23.07-.04.1.05.17.1.21.1.07.31.22.47.39.1.11.3.32.35.53.03.14.1.45.36.45s.39-.13.39-.39c0-.1,0-.3-.31-.65-.11-.12-.34-.37-1.11-.6h-.02Z"/>
    <path class="cls-1" d="M52.74,34.05h-.02s-.01.02-.01.02c-.49.47-1.51,1.46-3.03,2.43-.45.29-1.5.96-1.81.96-.09,0-.25,0-.42-.42v-.03s-.03-.02-.03-.02c-.03-.03-.11-.08-.2-.04-.08.04-.09.13-.09.18-.02.14-.06.43.38.83.23.21.4.34.53.34.1,0,.17-.04.21-.12.01-.02.03-.06.05-.15.9-.5,2.7-1.51,4.67-3.7h.01s0-.03,0-.03c.03-.06.07-.17,0-.25s-.2-.03-.25,0Z"/>
    <path class="cls-1" d="M46.87,43.35c-.14-.11-.42-.33-1.13-.54h0c-.17-.04-.52-.13-.84-.17,0-.29-.02-.81.06-1.47h0s0-.04.04-.05c.16-.04.19-.14.19-.22,0-.07-.02-.15-.18-.28-.09-.07-.28-.22-.56-.28-.09-.02-.28-.06-.51,0h-.02s-.12.07-.12.16c0,.06.04.11.12.15h.02s.02.01.02.01c.08,0,.24.02.3.1.03.04.09.11.09.37,0,1.1.03,3.39-.06,4.37-.04.14-.12.41-.02.64.04.1.14.32.38.32.22,0,.25-.24.25-.42v-3.05c.46.14,1.24.42,1.74,1.07.11.14.25.3.4.3.2,0,.31-.12.31-.36,0-.15-.06-.33-.47-.66Z"/>
    <path class="cls-1" d="M47.22,40.66h-.02s-.13,0-.16.08c-.04.09.04.16.06.18h0s.01.02.01.02c.11.07.33.19.52.4.04.06.12.18.24.3.04.04.11.09.25.09.22,0,.25-.17.25-.25s0-.24-.2-.45c-.09-.09-.25-.25-.95-.37Z"/>
    <path class="cls-1" d="M47.32,41.53c-.14-.1-.44-.3-.86-.42h-.03s-.03,0-.03,0c-.03,0-.1.03-.12.11,0,.04,0,.09.05.15h0c.15.13.45.37.55.53.18.29.32.45.46.45.23,0,.28-.17.28-.31,0-.09,0-.31-.31-.52ZM46.47,41.23h0s0,0,0,0c0,0,0,0,0,0Z"/>
    <path class="cls-1" d="M40.51,45.18l-.2.27h-2.5l-.57-.42v5.78c0,.07,0,.2.11.25.02,0,.04.01.07.01.09,0,.21-.07.37-.22l.03-.03v-.8h2.52v.41c0,.07,0,.2.11.25.1.05.23-.02.44-.2l.03-.03v-4.56c.08-.02.16-.06.18-.15.02-.07-.02-.15-.1-.22l-.49-.35ZM40.34,49.64h-2.52v-1.83h2.52v1.83ZM40.34,47.43h-2.52v-1.6h2.52v1.6Z"/>
    <path class="cls-1" d="M31.73,49.2h2.82s.14-.05.16-.15c.02-.1-.06-.18-.13-.24l-.62-.46-.46.46h-1.98v-1.07c.1-.02.19-.06.21-.15.02-.12-.1-.2-.14-.22h-.02s-.63-.12-.63-.12v1.57h-2.9v.38h2.61c-.39.78-1.15,2.2-2.79,3.37h-.02s-.01.03-.01.03c-.03.04-.08.13-.02.21.06.09.18.07.22.06h.02s.02-.01.02-.01c.53-.3,1.61-.9,2.89-2.88v1.83h-1.35v.38h1.35v1.53c0,.07,0,.2.11.25.02,0,.04.01.07.01.09,0,.21-.07.37-.22l.03-.03v-1.55h1.39s.14-.05.16-.15c.02-.1-.06-.18-.13-.24l-.53-.4-.41.41h-.48v-2.13c.37.83,1.08,2.05,2.69,2.96l.09.05.05-.09c.04-.08.12-.22.46-.32l.28-.09-.27-.11c-.65-.27-1.99-.82-3.08-2.87Z"/>
    <path class="cls-1" d="M24.27,50.63l-.54-.37-.23.3h-1.87l-.57-.42v3.71c0,.07,0,.2.11.25.02,0,.04.01.07.01.09,0,.21-.07.37-.22l.03-.03v-1.43h1.89v.73c0,.07,0,.1-.1.1h-.62s-.12.07-.12.16c0,.06.04.11.12.15h.01s.38.07.38.07c.06.02.09.04.09.1,0,.22.15.25.22.25s.21,0,.36-.14c.07-.06.23-.21.23-.57v-2.23c.12-.02.25-.06.28-.17.03-.12-.08-.21-.13-.24ZM23.53,52.05h-1.89v-.39h1.89v.39ZM23.53,51.27h-1.89v-.34h1.89v.34Z"/>
    <path class="cls-1" d="M20.76,49.28c0-.23-.11-.47-.92-.71v-.93c.14-.04.27-.09.28-.21,0-.13-.14-.18-.21-.2l-.66-.11v6.58c0,.07,0,.2.11.25.02,0,.04.01.07.01.09,0,.21-.07.37-.22l.03-.03v-4.77c.11.08.24.2.34.4.03.09.11.29.3.29s.28-.12.28-.36Z"/>
    <path class="cls-1" d="M24.49,49.37l-.35.35h-1.29v-.42h1.68s.14-.05.16-.15c.02-.1-.06-.18-.13-.24l-.48-.34-.35.35h-.89v-.45h1.97s.14-.05.16-.15c.02-.1-.06-.18-.13-.24l-.48-.34-.35.35h-1.17v-.45c.14-.04.27-.09.28-.21,0-.13-.14-.18-.21-.2l-.66-.11v.97h-1.78v.38h1.78v.45h-1.38v.38h1.38v.42h-1.92v.38h4.59s.14-.05.16-.15c.02-.1-.06-.18-.13-.24l-.48-.34Z"/>
    <path class="cls-1" d="M19.03,49.16h0c-.03-.06-.08-.15-.18-.13-.1.02-.12.14-.13.18h0c0,.15-.03.42-.19.77-.13.17-.22.3-.22.4,0,.3.17.36.31.36.2,0,.42-.09.48-.79,0-.13.03-.39-.06-.78v-.02Z"/>
    <path class="cls-1" d="M14.43,48.07c.16-.25.44-.73.7-1.59.13-.03.27-.08.28-.19,0-.05,0-.11-.11-.16l-.54-.34-.14.21h-1.59v-2.09h1.28v1.19c0,.07,0,.1-.1.1h-.62s-.12.07-.12.16c0,.06.04.11.12.15l.39.09c.07.02.1.04.1.1,0,.2.15.22.22.22s.21,0,.36-.14c.07-.06.23-.21.23-.57v-1.24c.08-.02.16-.06.18-.15.02-.07-.02-.15-.1-.22l-.49-.35-.2.27h-1.27l-.56-.3v2.07c-.02-.06-.07-.1-.11-.14l-.48-.34-.35.35h-.66v-.65h1.22s.14-.05.16-.15c.02-.1-.06-.18-.13-.24l-.48-.34-.35.35h-.43v-.55c.1-.02.19-.06.21-.15.02-.12-.1-.2-.14-.22h-.02s-.63-.12-.63-.12v1.05h-1.12v.38h1.12v.65h-1.52v.38h.7s0,.07.03.11h0c.07.11.19.3.21.73h0c.01.11.05.18.1.23h-.9v.38h1.38v.74h-1.18v.38h1.18v1.42c0,.07,0,.2.11.25.02,0,.04.01.07.01.09,0,.21-.07.37-.22l.03-.03v-1.43h1.34s.14-.05.16-.15c.02-.1-.06-.18-.13-.24l-.48-.34-.35.35h-.54v-.74h1.48s.08-.03.12-.07v2.52c0,.07,0,.2.11.25.1.05.23-.02.44-.2l.03-.03v-.15c.06.04.15.01.19,0h.01s.01-.01.01-.01c.18-.12.54-.38.89-.82.19.2.51.51.91.79l.09.06.06-.09s.1-.14.44-.28l.26-.1-.26-.1c-.25-.1-.76-.29-1.2-.72ZM10.89,46.63h-.72c.08-.07.1-.17.1-.27,0-.15,0-.44-.46-.81h1.42l-.34,1.08ZM12.44,46.71s-.06-.06-.09-.09l-.48-.34-.35.35h-.23l.43-.75c.12-.02.26-.05.28-.17.01-.06,0-.11-.06-.17h.35s.12-.04.15-.12v1.28ZM13.04,49.04v.02s-.02,0-.02.01v-2.66c.11.37.33,1.01.77,1.7-.12.19-.35.52-.75.93ZM14.05,47.65c-.18-.28-.46-.72-.65-1.27h1.13c-.08.31-.23.8-.48,1.27Z"/>
    <path class="cls-1" d="M9.14,41.73s.14-.05.16-.15c.02-.1-.06-.18-.13-.24l-.62-.46-.46.46h-2v-4.24h2.48s.14-.05.16-.15c.02-.1-.06-.18-.13-.24l-.53-.4-.41.41H2.82v.38h2.61v4.24h-2.76v.38h6.45Z"/>
    <path class="cls-1" d="M2.51,31.46c.16.18.31.22.46.1h.01s0-.02,0-.02c.06-.08.23-.34-.14-.63-.1-.07-.31-.22-.76-.34v-.44h1.19s.12-.05.15-.12c.01.01.02.02.03.03.14.13.41.38.57.93h0c.02.06.08.25.3.25.2,0,.31-.12.31-.36,0-.12,0-.36-.35-.68-.09-.08-.27-.24-.69-.39h-.01s-.14-.03-.19.04c-.02-.03-.06-.06-.08-.08l-.53-.4-.41.41h-.28v-1.19c.15-.04.39-.11.74-.23.26.03.44.03.5-.09.05-.11-.06-.2-.1-.24l-.56-.36-.06.03c-.32.19-.99.6-2.41.96h-.02c-.06.04-.16.09-.15.19s.13.12.18.13h.02s.02,0,.02,0c.24-.03.73-.1,1.26-.25v1.05H.05v.38h1.4c-.13.38-.43,1.1-1.41,2.53h0s0,.03,0,.03c-.02.07-.05.18.04.23.09.06.2-.03.25-.07h0c.17-.18.52-.52,1.2-1.56v2.74c0,.07,0,.2.11.25.02,0,.04.01.07.01.09,0,.21-.07.37-.22l.03-.03v-3.06c.14.1.3.25.41.45v.02Z"/>
    <path class="cls-1" d="M4.37,28.41c-.09-.06-.27-.18-.74-.33h-.01s-.15-.03-.19.05c-.05.09.04.17.07.21h.01c.15.12.43.31.65.85.02.05.08.21.3.21.2,0,.31-.12.31-.36,0-.11,0-.37-.39-.63Z"/>
    <path class="cls-1" d="M5.01,34.01c0,.07,0,.2.11.25.02,0,.04.01.07.01.09,0,.21-.07.37-.22l.03-.03v-2.25l1.06-.19h.01c.05-.02.16-.05.2-.15.03-.07,0-.15-.05-.24l-.58-.58-.33.69-.31.05v-3.32c.14-.04.27-.09.28-.21,0-.13-.14-.18-.21-.2l-.66-.11v3.94l-2.61.46.12.4,2.5-.45v2.14Z"/>
    <path class="cls-1" d="M.2,25.19s.05,0,.07,0h.02c.97-.36,2.93-1.08,3.08-3.82.16.96.61,2.51,2.58,3.69l.07.04.06-.06c.07-.07.21-.21.63-.29l.33-.06-.31-.14c-.88-.39-2.51-1.1-3.01-3.47h2.86s.14-.05.16-.15c.02-.1-.06-.18-.13-.24l-.62-.46-.46.46h-2.15v-1.59c.1-.02.19-.06.21-.15.02-.12-.1-.2-.14-.22h-.02s-.63-.12-.63-.12v2.09H.14v.38h2.64c-.02.97-.15,2.65-2.63,3.76h-.02s-.02.03-.02.03c-.05.06-.13.15-.07.24.03.06.1.08.16.08Z"/>
    <path class="cls-1" d="M5.69,11.22c.13.11.38.32.51.84h0c.02.07.08.25.3.25.18,0,.28-.12.28-.36,0-.21,0-.65-.93-1.02h-.02c-.09-.03-.22-.05-.27.05-.05.1.05.19.12.25Z"/>
    <path class="cls-1" d="M4.19,11.48h.02c.12.08.34.22.53.76.02.08.08.27.24.27.22,0,.33-.13.33-.39,0-.18,0-.56-.99-.93h-.02s-.02,0-.02,0c-.03,0-.12,0-.16.08-.04.09.02.17.05.2v.02Z"/>
    <path class="cls-1" d="M6.19,16.98h-.73s-.14.06-.14.16.11.14.14.16l.46.09s.08.06.08.1c0,.24.17.28.28.28.06,0,.18,0,.41-.2.08-.07.24-.2.24-.6v-1.36h2.97s.14-.05.16-.15c.02-.1-.06-.18-.13-.24l-.62-.46-.46.46h-1.92v-.35l1.12-.67c.23.02.4.03.46-.09.02-.05.03-.12-.06-.21l-.53-.53-.27.27h-3.08v.38h2.78l-.54.54-.46-.25v.9h-2.99v.38h2.99v1.22c0,.09,0,.15-.15.15Z"/>
    <path class="cls-1" d="M3.54,14.03c.1,0,.22-.03.37-.25.07-.1.2-.29.24-.85h4.8l-.32.54h0c-.02.08-.05.19.04.25.09.06.19-.02.24-.06l.59-.38c.24.04.42.05.48-.07.06-.11-.05-.22-.09-.25l-.69-.69-.21.28h-1.16c.17-.17.41-.43.72-.8.25-.01.42-.04.45-.17.03-.13-.11-.22-.31-.31l-.53-.28-.04.11c-.09.23-.28.69-.71,1.46h-3.3c-.01-.06-.03-.13-.04-.21v-.02c-.04-.06-.09-.16-.19-.15-.1.02-.12.13-.13.18v.02c0,.22,0,.62-.37.99-.07.07-.2.2-.2.36,0,.2.12.31.36.31Z"/>
  </g>
</svg>